<mxfile host="app.diagrams.net" agent="Mozilla/5.0 (Windows NT 10.0; Win64; x64) AppleWebKit/537.36 (KHTML, like Gecko) Chrome/129.0.0.0 Safari/537.36" version="24.8.2">
  <diagram name="第 1 页" id="Yp9yb2cdXCGBLb72mKOD">
    <mxGraphModel dx="724" dy="432" grid="1" gridSize="10" guides="1" tooltips="1" connect="1" arrows="1" fold="1" page="1" pageScale="1" pageWidth="827" pageHeight="1169" math="0" shadow="0">
      <root>
        <mxCell id="0" />
        <mxCell id="1" parent="0" />
        <mxCell id="MwoNXCMNG1RoGgyqO9Ve-1" value="" style="rounded=0;whiteSpace=wrap;html=1;fillColor=#d5e8d4;strokeColor=#82b366;" vertex="1" parent="1">
          <mxGeometry x="170" y="110" width="120" height="60" as="geometry" />
        </mxCell>
        <mxCell id="MwoNXCMNG1RoGgyqO9Ve-4" value="" style="edgeStyle=orthogonalEdgeStyle;rounded=0;sketch=1;hachureGap=4;jiggle=2;curveFitting=1;orthogonalLoop=1;jettySize=auto;html=1;fontFamily=Architects Daughter;fontSource=https%3A%2F%2Ffonts.googleapis.com%2Fcss%3Ffamily%3DArchitects%2BDaughter;" edge="1" parent="1" source="MwoNXCMNG1RoGgyqO9Ve-2" target="MwoNXCMNG1RoGgyqO9Ve-3">
          <mxGeometry relative="1" as="geometry" />
        </mxCell>
        <mxCell id="MwoNXCMNG1RoGgyqO9Ve-2" value="开始" style="rounded=1;whiteSpace=wrap;html=1;sketch=1;hachureGap=4;jiggle=2;curveFitting=1;fontFamily=Architects Daughter;fontSource=https%3A%2F%2Ffonts.googleapis.com%2Fcss%3Ffamily%3DArchitects%2BDaughter;fillColor=#d5e8d4;strokeColor=#82b366;" vertex="1" parent="1">
          <mxGeometry x="380" y="110" width="120" height="60" as="geometry" />
        </mxCell>
        <mxCell id="MwoNXCMNG1RoGgyqO9Ve-6" value="" style="edgeStyle=orthogonalEdgeStyle;rounded=0;sketch=1;hachureGap=4;jiggle=2;curveFitting=1;orthogonalLoop=1;jettySize=auto;html=1;fontFamily=Architects Daughter;fontSource=https%3A%2F%2Ffonts.googleapis.com%2Fcss%3Ffamily%3DArchitects%2BDaughter;" edge="1" parent="1" source="MwoNXCMNG1RoGgyqO9Ve-3" target="MwoNXCMNG1RoGgyqO9Ve-5">
          <mxGeometry relative="1" as="geometry" />
        </mxCell>
        <mxCell id="MwoNXCMNG1RoGgyqO9Ve-8" value="" style="edgeStyle=orthogonalEdgeStyle;rounded=0;sketch=1;hachureGap=4;jiggle=2;curveFitting=1;orthogonalLoop=1;jettySize=auto;html=1;fontFamily=Architects Daughter;fontSource=https%3A%2F%2Ffonts.googleapis.com%2Fcss%3Ffamily%3DArchitects%2BDaughter;" edge="1" parent="1" source="MwoNXCMNG1RoGgyqO9Ve-3" target="MwoNXCMNG1RoGgyqO9Ve-7">
          <mxGeometry relative="1" as="geometry" />
        </mxCell>
        <mxCell id="MwoNXCMNG1RoGgyqO9Ve-3" value="第一步" style="whiteSpace=wrap;html=1;fontFamily=Architects Daughter;rounded=1;sketch=1;hachureGap=4;jiggle=2;curveFitting=1;fontSource=https%3A%2F%2Ffonts.googleapis.com%2Fcss%3Ffamily%3DArchitects%2BDaughter;fillColor=#f8cecc;strokeColor=#b85450;" vertex="1" parent="1">
          <mxGeometry x="380" y="250" width="120" height="60" as="geometry" />
        </mxCell>
        <mxCell id="MwoNXCMNG1RoGgyqO9Ve-5" value="1.1" style="ellipse;whiteSpace=wrap;html=1;fontFamily=Architects Daughter;rounded=1;sketch=1;hachureGap=4;jiggle=2;curveFitting=1;fontSource=https%3A%2F%2Ffonts.googleapis.com%2Fcss%3Ffamily%3DArchitects%2BDaughter;fillColor=#e1d5e7;strokeColor=#9673a6;" vertex="1" parent="1">
          <mxGeometry x="600" y="240" width="80" height="80" as="geometry" />
        </mxCell>
        <mxCell id="MwoNXCMNG1RoGgyqO9Ve-7" value="1.2" style="rhombus;whiteSpace=wrap;html=1;fontFamily=Architects Daughter;rounded=1;sketch=1;hachureGap=4;jiggle=2;curveFitting=1;fontSource=https%3A%2F%2Ffonts.googleapis.com%2Fcss%3Ffamily%3DArchitects%2BDaughter;fillColor=#f5f5f5;fontColor=#333333;strokeColor=#666666;" vertex="1" parent="1">
          <mxGeometry x="400" y="380" width="80" height="80" as="geometry" />
        </mxCell>
        <mxCell id="MwoNXCMNG1RoGgyqO9Ve-9" value="" style="endArrow=classic;html=1;rounded=0;sketch=1;hachureGap=4;jiggle=2;curveFitting=1;fontFamily=Architects Daughter;fontSource=https%3A%2F%2Ffonts.googleapis.com%2Fcss%3Ffamily%3DArchitects%2BDaughter;" edge="1" parent="1">
          <mxGeometry relative="1" as="geometry">
            <mxPoint x="270" y="350" as="sourcePoint" />
            <mxPoint x="370" y="350" as="targetPoint" />
          </mxGeometry>
        </mxCell>
        <mxCell id="MwoNXCMNG1RoGgyqO9Ve-10" value="" style="shape=message;html=1;outlineConnect=0;sketch=1;hachureGap=4;jiggle=2;curveFitting=1;fontFamily=Architects Daughter;fontSource=https%3A%2F%2Ffonts.googleapis.com%2Fcss%3Ffamily%3DArchitects%2BDaughter;" vertex="1" parent="MwoNXCMNG1RoGgyqO9Ve-9">
          <mxGeometry width="20" height="14" relative="1" as="geometry">
            <mxPoint x="-10" y="-7" as="offset" />
          </mxGeometry>
        </mxCell>
        <mxCell id="MwoNXCMNG1RoGgyqO9Ve-11" value="" style="endArrow=classic;html=1;rounded=0;sketch=1;hachureGap=4;jiggle=2;curveFitting=1;fontFamily=Architects Daughter;fontSource=https%3A%2F%2Ffonts.googleapis.com%2Fcss%3Ffamily%3DArchitects%2BDaughter;" edge="1" parent="1">
          <mxGeometry relative="1" as="geometry">
            <mxPoint x="180" y="280" as="sourcePoint" />
            <mxPoint x="340" y="280" as="targetPoint" />
          </mxGeometry>
        </mxCell>
        <mxCell id="MwoNXCMNG1RoGgyqO9Ve-12" value="Label" style="edgeLabel;resizable=0;html=1;;align=center;verticalAlign=middle;sketch=1;hachureGap=4;jiggle=2;curveFitting=1;fontFamily=Architects Daughter;fontSource=https%3A%2F%2Ffonts.googleapis.com%2Fcss%3Ffamily%3DArchitects%2BDaughter;" connectable="0" vertex="1" parent="MwoNXCMNG1RoGgyqO9Ve-11">
          <mxGeometry relative="1" as="geometry" />
        </mxCell>
        <mxCell id="MwoNXCMNG1RoGgyqO9Ve-13" value="Source" style="edgeLabel;resizable=0;html=1;;align=left;verticalAlign=bottom;sketch=1;hachureGap=4;jiggle=2;curveFitting=1;fontFamily=Architects Daughter;fontSource=https%3A%2F%2Ffonts.googleapis.com%2Fcss%3Ffamily%3DArchitects%2BDaughter;" connectable="0" vertex="1" parent="MwoNXCMNG1RoGgyqO9Ve-11">
          <mxGeometry x="-1" relative="1" as="geometry" />
        </mxCell>
        <mxCell id="MwoNXCMNG1RoGgyqO9Ve-14" value="Target" style="edgeLabel;resizable=0;html=1;;align=right;verticalAlign=bottom;sketch=1;hachureGap=4;jiggle=2;curveFitting=1;fontFamily=Architects Daughter;fontSource=https%3A%2F%2Ffonts.googleapis.com%2Fcss%3Ffamily%3DArchitects%2BDaughter;" connectable="0" vertex="1" parent="MwoNXCMNG1RoGgyqO9Ve-11">
          <mxGeometry x="1" relative="1" as="geometry" />
        </mxCell>
        <mxCell id="MwoNXCMNG1RoGgyqO9Ve-15" value="" style="shape=link;html=1;rounded=0;sketch=1;hachureGap=4;jiggle=2;curveFitting=1;fontFamily=Architects Daughter;fontSource=https%3A%2F%2Ffonts.googleapis.com%2Fcss%3Ffamily%3DArchitects%2BDaughter;" edge="1" parent="1">
          <mxGeometry width="100" relative="1" as="geometry">
            <mxPoint x="210" y="410" as="sourcePoint" />
            <mxPoint x="310" y="410" as="targetPoint" />
          </mxGeometry>
        </mxCell>
      </root>
    </mxGraphModel>
  </diagram>
</mxfile>
